# xmcd
#
# Track frame offsets:
#	150
#	13934
#	25354
#	36479
#	52503
#	69778
#	82007
#	100420
#	117739
#	135130
#	145899
#	163020
#	178432
#	193965
#	205410
#
# Disc length: 2882 seconds
#
# Revision: 1
# Processed by: cddbd v1.5.2PL0 Copyright (c) Steve Scherf et al.
# Submitted via: audiograbber 1.83.01
#
DISCID=dc0b400f
DTITLE=Cliff Wagner and Th Old #7 - Hobo's Lullaby
DYEAR=2008
DGENRE=Country
TTITLE0=Shake It Up
TTITLE1=Honky Cat
TTITLE2=Lil' White Chapel
TTITLE3=Same Old Me
TTITLE4=Castleneck
TTITLE5=Don't Think Twice
TTITLE6=Hobo's Lullaby
TTITLE7=Rollin' and Tumblin'
TTITLE8=What Part Of Heaven
TTITLE9=Poison Ivy
TTITLE10=Old Fire
TTITLE11=Shaffertown Road II
TTITLE12=South Bound Train
TTITLE13=You May Be Right
TTITLE14=Carroll County Blues
EXTD=
EXTT0=
EXTT1=
EXTT2=
EXTT3=
EXTT4=
EXTT5=
EXTT6=
EXTT7=
EXTT8=
EXTT9=
EXTT10=
EXTT11=
EXTT12=
EXTT13=
EXTT14=
PLAYORDER=
